<?xml version="1.0" encoding="UTF-8" standalone="no"?>
<svg width="640" xmlns="http://www.w3.org/2000/svg" height="480">
 <g id="layer1">
  <g stroke-linejoin="round" stroke-dashoffset="3.003" stroke="#000" stroke-linecap="round" stroke-width="4" fill="#fff">
   <path id="path3874" d="m73.517 325.94c7.168-70.118 0.22-140.11 1.694-210.22l-40.576 54.456 1.466 16.126-4.136 1.493-4.805-4.805-14.506 11.799c-5.894-1.365-9.73-3.946-11.654-11.265 4.741-7.169 7.688-12.224 15.742-16.292 18.605-29.988 43.134-65.207 63.374-104.4l40.33-0.685c19.132 22.176 27.907 30.786 43.952 46.333 5.621-3.805 13.933-10.502 18.611-14.776 5.08-4.642 6.517-21.127 6.517-21.127l2.512-10.937c1.624-2.853 3.466-5.135 6.009 0.40198l1.492 9.986c5.384 1.003 7.041 5.449 9.941 7.855 2.699 6.262-1.434 9.926-5.797 14.327 0 0-33.307 49.584-40.179 42.139l-33.783-26.853c5.793 71.897 3.932 147.88 15.391 219.78h-31.461l-11.304-125.68-5.781 124.62-23.049-2.265z"/>
   <path id="path3944" d="m127.02 33.709c-0.12653 10.927-4.7492 22.574-15.524 29.248-7.7208 4.5418-19.384 2.9527-25.201-3.2891-9.0302-8.2355-11.509-20.08-10.449-30.891 1.1242-9.7229 6.0184-19.791 15.854-25.461 6.9541-3.644 16.826-2.9968 22.677 2.0064 9.4706 7.0183 12.676 18.183 12.642 28.387z"/>
   <path id="path3845" d="m62.209 192.53l5.412 127.79h77.014v-128.48l-82.426 0.687z"/>
   <path id="path3843" d="m51.01 143.7l10.571 57.383 83.054-1.51 13.59-57.383-107.22 1.51z"/>
   <path id="path3876" d="m55.8 338.03l11.077-22.651h78.017l16.61 21.141-105.7 1.51z"/>
   <g id="g4855">
    <path id="path4851" d="m108.66 85.864c0 3.1234-2.6727 5.6554-5.9696 5.6554s-5.9695-2.532-5.9695-5.6554 2.6726-5.6554 5.9695-5.6554 5.9696 2.532 5.9696 5.6554z"/>
    <path id="path4853" d="m106.85 90.002c14.504 8.9156 8.6785 33.487 8.1689 51.527"/>
   </g>
  </g>
 </g>
 <g stroke-width="4" stroke="#000" fill="none">
  <line id="svg_1" y1="20" x2="116" x1="104" y2="20"/>
  <g stroke-linejoin="null" stroke-linecap="null" stroke-dasharray="null">
   <circle id="svg_3" cy="29" cx="109" r="2"/>
   <circle id="svg_4" cy="29" cx="95" r="2"/>
  </g>
  <line id="svg_5" y1="20" x2="100" x1="88" y2="20"/>
 </g>
</svg>
